<svg width="25" height="10" viewBox="0 0 25 10" fill="none" xmlns="http://www.w3.org/2000/svg">
<path d="M-3.42727e-07 7.61932V6.75L3.83523 0.681815H4.46591V2.02841H4.03977L1.14205 6.61363V6.68182H6.30682V7.61932H-3.42727e-07ZM4.10795 9.40909V7.35511V6.95028V0.681815H5.11364V9.40909H4.10795ZM8.72408 9.47727C8.51385 9.47727 8.33345 9.40199 8.18288 9.25142C8.03232 9.10085 7.95703 8.92045 7.95703 8.71022C7.95703 8.5 8.03232 8.3196 8.18288 8.16903C8.33345 8.01846 8.51385 7.94318 8.72408 7.94318C8.9343 7.94318 9.1147 8.01846 9.26527 8.16903C9.41584 8.3196 9.49112 8.5 9.49112 8.71022C9.49112 8.84943 9.45561 8.97727 9.38459 9.09375C9.31641 9.21022 9.22408 9.30397 9.1076 9.375C8.99396 9.44318 8.86612 9.47727 8.72408 9.47727ZM15.2958 9.40909V2.86363H16.2674V3.85227H16.3355C16.4549 3.52841 16.6708 3.26562 16.9833 3.06392C17.2958 2.86221 17.648 2.76136 18.0401 2.76136C18.114 2.76136 18.2063 2.76278 18.3171 2.76562C18.4279 2.76846 18.5117 2.77272 18.5685 2.77841V3.80113C18.5344 3.79261 18.4563 3.77983 18.3341 3.76278C18.2148 3.74289 18.0884 3.73295 17.9549 3.73295C17.6367 3.73295 17.3526 3.79971 17.1026 3.93324C16.8554 4.06392 16.6594 4.24574 16.5145 4.47869C16.3725 4.7088 16.3015 4.97159 16.3015 5.26704V9.40909H15.2958ZM23.8856 6.73295V2.86363H24.8913V9.40909H23.8856V8.30113H23.8174C23.664 8.63352 23.4254 8.91619 23.1015 9.14914C22.7777 9.37926 22.3686 9.49432 21.8742 9.49432C21.4652 9.49432 21.1015 9.40483 20.7833 9.22585C20.4652 9.04403 20.2152 8.7713 20.0333 8.40767C19.8515 8.04119 19.7606 7.57954 19.7606 7.02272V2.86363H20.7663V6.95454C20.7663 7.43182 20.8998 7.8125 21.1669 8.09659C21.4367 8.38068 21.7805 8.52272 22.1981 8.52272C22.4481 8.52272 22.7024 8.4588 22.9609 8.33096C23.2223 8.20312 23.441 8.0071 23.6171 7.74289C23.7961 7.47869 23.8856 7.14204 23.8856 6.73295ZM21.9083 1.97727L20.5788 -3.09944e-06H21.7549L22.7947 1.97727H21.9083Z" fill="black"/>
</svg>
