<svg width="25" height="10" viewBox="0 0 25 10" fill="none" xmlns="http://www.w3.org/2000/svg">
<path d="M-2.89083e-06 9.40909V8.64204L2.88068 5.48863C3.21875 5.11932 3.49716 4.79829 3.71591 4.52557C3.93466 4.25 4.09659 3.99147 4.2017 3.75C4.30966 3.50568 4.36363 3.25 4.36363 2.98295C4.36363 2.67613 4.28977 2.41051 4.14204 2.18608C3.99716 1.96164 3.79829 1.78835 3.54545 1.66619C3.29261 1.54403 3.00852 1.48295 2.69318 1.48295C2.35795 1.48295 2.06534 1.55255 1.81534 1.69176C1.56818 1.82812 1.37642 2.01988 1.24005 2.26704C1.10653 2.5142 1.03977 2.80397 1.03977 3.13636H0.034088C0.034088 2.625 0.151986 2.17613 0.387781 1.78977C0.623577 1.40341 0.944599 1.10227 1.35085 0.88636C1.75994 0.670451 2.21875 0.562497 2.72727 0.562497C3.23863 0.562497 3.69176 0.670451 4.08665 0.88636C4.48153 1.10227 4.79119 1.39346 5.01562 1.75994C5.24005 2.12642 5.35227 2.53409 5.35227 2.98295C5.35227 3.30397 5.29403 3.61789 5.17755 3.92471C5.06392 4.22869 4.86505 4.56818 4.58096 4.94318C4.29971 5.31534 3.90909 5.76988 3.40909 6.30682L1.44886 8.40341V8.47159H5.50568V9.40909H-2.89083e-06ZM8.26385 9.47727C8.05362 9.47727 7.87322 9.40199 7.72265 9.25142C7.57209 9.10085 7.4968 8.92045 7.4968 8.71022C7.4968 8.5 7.57209 8.3196 7.72265 8.16903C7.87322 8.01846 8.05362 7.94318 8.26385 7.94318C8.47407 7.94318 8.65447 8.01846 8.80504 8.16903C8.95561 8.3196 9.03089 8.5 9.03089 8.71022C9.03089 8.84943 8.99538 8.97727 8.92436 9.09375C8.85618 9.21022 8.76385 9.30397 8.64737 9.375C8.53373 9.44318 8.40589 9.47727 8.26385 9.47727ZM14.8355 9.40909V2.86363H15.8071V3.85227H15.8753C15.9946 3.52841 16.2105 3.26562 16.523 3.06392C16.8355 2.86221 17.1878 2.76136 17.5799 2.76136C17.6537 2.76136 17.7461 2.76278 17.8568 2.76562C17.9676 2.76846 18.0514 2.77272 18.1083 2.77841V3.80113C18.0742 3.79261 17.9961 3.77983 17.8739 3.76278C17.7546 3.74289 17.6282 3.73295 17.4946 3.73295C17.1764 3.73295 16.8924 3.79971 16.6424 3.93324C16.3952 4.06392 16.1992 4.24574 16.0543 4.47869C15.9122 4.7088 15.8412 4.97159 15.8412 5.26704V9.40909H14.8355ZM23.4254 6.73295V2.86363H24.4311V9.40909H23.4254V8.30113H23.3572C23.2038 8.63352 22.9652 8.91619 22.6413 9.14914C22.3174 9.37926 21.9083 9.49432 21.414 9.49432C21.0049 9.49432 20.6413 9.40483 20.3231 9.22585C20.0049 9.04403 19.7549 8.7713 19.5731 8.40767C19.3913 8.04119 19.3004 7.57954 19.3004 7.02272V2.86363H20.3061V6.95454C20.3061 7.43182 20.4396 7.8125 20.7066 8.09659C20.9765 8.38068 21.3203 8.52272 21.7379 8.52272C21.9879 8.52272 22.2421 8.4588 22.5007 8.33096C22.762 8.20312 22.9808 8.0071 23.1569 7.74289C23.3359 7.47869 23.4254 7.14204 23.4254 6.73295ZM21.414 1.97727L22.4538 -3.09944e-06H23.6299L22.3004 1.97727H21.414Z" fill="black"/>
</svg>
