<svg width="24" height="9" viewBox="0 0 24 9" fill="none" xmlns="http://www.w3.org/2000/svg">
<path d="M3.23864 6.67572e-06V8.72728H2.18182V1.10796H2.13069L5.42402e-06 2.52273V1.44887L2.18182 6.67572e-06H3.23864ZM7.59908 8.79546C7.38885 8.79546 7.20846 8.72018 7.05789 8.56961C6.90732 8.41904 6.83204 8.23864 6.83204 8.02842C6.83204 7.81819 6.90732 7.63779 7.05789 7.48722C7.20846 7.33665 7.38885 7.26137 7.59908 7.26137C7.80931 7.26137 7.98971 7.33665 8.14028 7.48722C8.29084 7.63779 8.36613 7.81819 8.36613 8.02842C8.36613 8.16762 8.33062 8.29546 8.25959 8.41194C8.19141 8.52842 8.09908 8.62217 7.9826 8.69319C7.86897 8.76137 7.74113 8.79546 7.59908 8.79546ZM14.1708 8.72728V2.18182H15.1424V3.17046H15.2105C15.3299 2.8466 15.5458 2.58381 15.8583 2.38211C16.1708 2.1804 16.523 2.07955 16.9151 2.07955C16.989 2.07955 17.0813 2.08097 17.1921 2.08381C17.3029 2.08665 17.3867 2.09092 17.4435 2.0966V3.11932C17.4094 3.1108 17.3313 3.09802 17.2091 3.08097C17.0898 3.06109 16.9634 3.05114 16.8299 3.05114C16.5117 3.05114 16.2276 3.1179 15.9776 3.25143C15.7304 3.38211 15.5344 3.56393 15.3895 3.79688C15.2475 4.027 15.1765 4.28978 15.1765 4.58523V8.72728H14.1708ZM22.7606 6.05114V2.18182H23.7663V8.72728H22.7606V7.61933H22.6924C22.539 7.95171 22.3004 8.23438 21.9765 8.46734C21.6527 8.69745 21.2436 8.81251 20.7493 8.81251C20.3402 8.81251 19.9765 8.72302 19.6583 8.54404C19.3402 8.36222 19.0902 8.0895 18.9083 7.72586C18.7265 7.35938 18.6356 6.89773 18.6356 6.34092V2.18182H19.6413V6.27273C19.6413 6.75001 19.7748 7.13069 20.0419 7.41478C20.3118 7.69887 20.6555 7.84092 21.0731 7.84092C21.3231 7.84092 21.5774 7.777 21.8359 7.64915C22.0973 7.52131 22.316 7.32529 22.4922 7.06109C22.6711 6.79688 22.7606 6.46023 22.7606 6.05114ZM23.2038 6.67572e-06V0.85228H19.2152V6.67572e-06H23.2038Z" fill="black"/>
</svg>
