<svg width="25" height="10" viewBox="0 0 25 10" fill="none" xmlns="http://www.w3.org/2000/svg">
<path d="M2.96591 9.28977C2.40341 9.28977 1.90199 9.19318 1.46165 9C1.02415 8.80682 0.67614 8.53835 0.417617 8.1946C0.161935 7.84801 0.0227306 7.44602 3.27826e-06 6.98864H1.07387C1.09659 7.26989 1.19319 7.51279 1.36364 7.71733C1.53409 7.91904 1.75711 8.07529 2.03267 8.18608C2.30824 8.29688 2.61364 8.35227 2.94887 8.35227C3.32387 8.35227 3.65625 8.28693 3.94603 8.15625C4.2358 8.02557 4.46307 7.84375 4.62784 7.6108C4.79262 7.37784 4.875 7.10796 4.875 6.80114C4.875 6.48011 4.79546 6.19744 4.63637 5.95313C4.47728 5.70597 4.24432 5.51279 3.9375 5.37358C3.63069 5.23438 3.25569 5.16477 2.8125 5.16477H2.11364V4.22727H2.8125C3.15909 4.22727 3.46307 4.16477 3.72444 4.03977C3.98864 3.91477 4.19461 3.73864 4.34233 3.51136C4.4929 3.28409 4.56819 3.01705 4.56819 2.71023C4.56819 2.41477 4.50284 2.15767 4.37216 1.93892C4.24148 1.72017 4.05682 1.54972 3.81819 1.42756C3.58239 1.3054 3.30398 1.24432 2.98296 1.24432C2.68182 1.24432 2.39773 1.29972 2.13069 1.41051C1.86648 1.51847 1.65057 1.67614 1.48296 1.88352C1.31534 2.08807 1.22444 2.33523 1.21023 2.625H0.187503C0.204549 2.16761 0.342333 1.76705 0.600856 1.4233C0.859378 1.07671 1.19745 0.806819 1.61506 0.613638C2.03551 0.420456 2.49716 0.323865 3 0.323865C3.53978 0.323865 4.00284 0.43324 4.38921 0.65199C4.77557 0.867899 5.07245 1.15341 5.27983 1.50852C5.48722 1.86364 5.59091 2.24716 5.59091 2.65909C5.59091 3.15057 5.46165 3.5696 5.20313 3.91619C4.94745 4.26279 4.59944 4.50284 4.15909 4.63637V4.70455C4.71023 4.79546 5.14063 5.02983 5.45029 5.40767C5.75995 5.78267 5.91478 6.24716 5.91478 6.80114C5.91478 7.27557 5.78551 7.70171 5.52699 8.07955C5.27131 8.45455 4.92188 8.75 4.4787 8.96591C4.03551 9.18182 3.53125 9.28977 2.96591 9.28977ZM8.4684 9.23864C8.25817 9.23864 8.07777 9.16335 7.92721 9.01279C7.77664 8.86222 7.70135 8.68182 7.70135 8.47159C7.70135 8.26137 7.77664 8.08097 7.92721 7.9304C8.07777 7.77983 8.25817 7.70455 8.4684 7.70455C8.67863 7.70455 8.85902 7.77983 9.00959 7.9304C9.16016 8.08097 9.23544 8.26137 9.23544 8.47159C9.23544 8.6108 9.19993 8.73864 9.12891 8.85512C9.06073 8.97159 8.9684 9.06534 8.85192 9.13637C8.73828 9.20455 8.61044 9.23864 8.4684 9.23864ZM15.0401 9.17046V2.625H16.0117V3.61364H16.0799C16.1992 3.28977 16.4151 3.02699 16.7276 2.82528C17.0401 2.62358 17.3924 2.52273 17.7844 2.52273C17.8583 2.52273 17.9506 2.52415 18.0614 2.52699C18.1722 2.52983 18.256 2.53409 18.3128 2.53977V3.5625C18.2787 3.55398 18.2006 3.54119 18.0784 3.52415C17.9591 3.50426 17.8327 3.49432 17.6992 3.49432C17.381 3.49432 17.0969 3.56108 16.8469 3.6946C16.5998 3.82529 16.4037 4.0071 16.2588 4.24006C16.1168 4.47017 16.0458 4.73296 16.0458 5.02841V9.17046H15.0401ZM23.6299 6.49432V2.625H24.6356V9.17046H23.6299V8.0625H23.5618C23.4083 8.39489 23.1697 8.67756 22.8458 8.91051C22.522 9.14063 22.1129 9.25568 21.6186 9.25568C21.2095 9.25568 20.8458 9.16619 20.5277 8.98722C20.2095 8.8054 19.9595 8.53267 19.7777 8.16904C19.5958 7.80256 19.5049 7.34091 19.5049 6.78409V2.625H20.5106V6.71591C20.5106 7.19318 20.6441 7.57386 20.9112 7.85796C21.1811 8.14205 21.5248 8.28409 21.9424 8.28409C22.1924 8.28409 22.4467 8.22017 22.7052 8.09233C22.9666 7.96449 23.1853 7.76847 23.3615 7.50426C23.5404 7.24006 23.6299 6.90341 23.6299 6.49432ZM21.1924 1.19209e-06L22.0788 1.19318L22.9652 1.19209e-06H23.9197V0.0681829L22.539 1.84091H21.6186L20.2379 0.0681829V1.19209e-06H21.1924Z" fill="black"/>
</svg>
